<svg width="686" height="380" viewBox="0 0 686 380" fill="none" xmlns="http://www.w3.org/2000/svg">
<path d="M171.612 13.474C174.172 13.474 176.247 11.3984 176.247 8.83803C176.247 6.27767 174.172 4.20209 171.612 4.20209C169.053 4.20209 166.978 6.27767 166.978 8.83803C166.978 11.3984 169.053 13.474 171.612 13.474Z" fill="#4F46E5"/>
<path d="M459.906 13.474C462.465 13.474 464.54 11.3984 464.54 8.83803C464.54 6.27767 462.465 4.20209 459.906 4.20209C457.346 4.20209 455.271 6.27767 455.271 8.83803C455.271 11.3984 457.346 13.474 459.906 13.474Z" fill="#4F46E5"/>
<path d="M19.0559 364.93C32.4493 374.581 49.8061 375.066 66.5833 373.88C68.926 373.715 71.2522 373.521 73.5568 373.311C73.5707 373.308 73.589 373.309 73.6031 373.305C73.7139 373.295 73.8249 373.284 73.9308 373.278C74.4065 373.234 74.8824 373.189 75.3536 373.144L75.2423 373.357L74.8929 374.016C75.0184 373.795 75.1439 373.579 75.2695 373.359C75.3064 373.292 75.3478 373.226 75.3845 373.16C79.7308 365.595 84.0415 357.752 85.141 349.113C86.2776 340.146 83.0834 329.993 75.1939 325.586C74.1593 325.009 73.0635 324.55 71.9271 324.217C71.4553 324.074 70.977 323.957 70.4934 323.854C67.5345 323.197 64.454 323.34 61.5687 324.269C58.6833 325.197 56.0973 326.877 54.0765 329.137C52.0556 331.397 50.6729 334.154 50.0705 337.125C49.4681 340.097 49.6677 343.175 50.6489 346.043C43.9601 339.183 45.2079 328.053 47.5152 318.751C49.827 309.449 52.6256 299.099 47.9236 290.744C45.3099 286.094 40.7134 283.209 35.5551 282.046C35.3969 282.012 35.2388 281.978 35.0803 281.949C28.9343 280.704 22.5449 281.823 17.1883 285.085C7.32519 291.302 2.25935 303.09 0.615198 314.637C-2.0339 333.218 3.82846 353.956 19.0559 364.93Z" fill="#F2F2F2"/>
<path d="M23.3801 335.143C23.7689 339.242 24.7532 343.262 26.3019 347.076C27.7291 350.452 29.6529 353.595 32.0094 356.401C36.9084 362.137 43.1129 366.612 50.1009 369.45C55.3864 371.615 60.9244 373.104 66.5832 373.88C68.9259 373.715 71.2521 373.521 73.5567 373.311C73.5706 373.308 73.5889 373.309 73.603 373.305C73.7138 373.295 73.8247 373.284 73.9307 373.278C74.4064 373.234 74.8823 373.189 75.3535 373.144L75.2422 373.357L74.8928 374.016C75.0183 373.795 75.1438 373.579 75.2694 373.359C75.3063 373.292 75.3477 373.226 75.3844 373.16C71.1421 368.932 67.9746 363.749 66.1475 358.044C64.3203 352.339 63.8868 346.28 64.883 340.373C65.9256 334.508 68.3392 328.972 71.927 324.217C71.4551 324.074 70.9769 323.957 70.4932 323.854C69.1297 325.719 67.9337 327.701 66.9191 329.776C63.2786 337.177 62.1171 345.554 63.6067 353.667C64.9915 361.009 68.4415 367.803 73.5517 373.251C73.1043 373.22 72.6524 373.183 72.2103 373.143C63.8356 372.433 55.478 370.632 47.8821 366.944C41.3892 363.867 35.7523 359.24 31.4679 353.472C26.8675 347.125 24.8404 339.492 24.4921 331.733C24.2241 323.374 25.1 315.018 27.0954 306.897C29.0305 298.616 31.9714 290.602 35.8525 283.036C35.9393 282.864 35.9568 282.666 35.9014 282.482C35.846 282.298 35.722 282.142 35.555 282.046C35.4157 281.953 35.2451 281.917 35.0801 281.949C34.9994 281.97 34.9245 282.009 34.8611 282.064C34.7977 282.118 34.7474 282.186 34.7139 282.263C34.2351 283.197 33.7652 284.133 33.3132 285.078C29.5487 292.956 26.7771 301.272 25.0623 309.833C23.3975 318.093 22.5089 326.732 23.3801 335.143Z" fill="white"/>
<path d="M656.363 364.189C636.155 378.751 609.967 379.482 584.653 377.693C581.118 377.444 577.609 377.151 574.132 376.835C574.111 376.83 574.083 376.832 574.062 376.826C573.894 376.81 573.727 376.794 573.567 376.785C572.849 376.718 572.131 376.651 571.42 376.583L571.588 376.904L572.116 377.898C571.926 377.565 571.737 377.24 571.547 376.907C571.492 376.807 571.429 376.707 571.374 376.607C564.816 365.192 558.312 353.358 556.653 340.324C554.938 326.795 559.758 311.476 571.661 304.826C573.223 303.956 574.876 303.264 576.591 302.761C577.302 302.545 578.024 302.369 578.754 302.214C583.218 301.222 587.866 301.438 592.22 302.839C596.573 304.239 600.475 306.775 603.524 310.184C606.573 313.594 608.659 317.754 609.568 322.237C610.477 326.72 610.176 331.364 608.695 335.693C618.788 325.341 616.905 308.548 613.424 294.513C609.936 280.479 605.713 264.862 612.807 252.256C616.751 245.24 623.686 240.887 631.469 239.133C631.708 239.082 631.946 239.03 632.186 238.986C641.459 237.107 651.099 238.796 659.181 243.717C674.063 253.098 681.707 270.883 684.187 288.306C688.184 316.342 679.339 347.631 656.363 364.189Z" fill="#F2F2F2"/>
<path d="M649.839 319.246C649.252 325.43 647.767 331.496 645.431 337.251C643.277 342.344 640.374 347.087 636.819 351.321C629.556 360.061 619.952 366.631 609.522 371.009C601.547 374.276 593.191 376.522 584.653 377.693C581.118 377.444 577.609 377.151 574.132 376.835C574.11 376.83 574.083 376.832 574.062 376.826C573.894 376.81 573.727 376.795 573.567 376.785C572.849 376.718 572.131 376.651 571.42 376.583L571.588 376.904L572.116 377.898C571.926 377.566 571.737 377.24 571.547 376.907C571.492 376.807 571.429 376.707 571.374 376.607C577.775 370.228 582.554 362.407 585.311 353.8C588.068 345.192 588.722 336.049 587.218 327.137C585.645 318.288 582.004 309.935 576.59 302.761C577.302 302.545 578.024 302.369 578.754 302.214C580.811 305.027 582.616 308.017 584.146 311.148C589.639 322.315 591.392 334.955 589.144 347.196C587.055 358.273 581.849 368.524 574.139 376.745C574.814 376.697 575.496 376.642 576.163 376.581C588.799 375.51 601.409 372.793 612.87 367.227C622.666 362.585 631.171 355.605 637.636 346.901C644.577 337.325 647.636 325.807 648.161 314.101C648.718 301.568 647.092 288.816 644.233 276.628C641.313 264.133 636.876 252.043 631.02 240.626C630.889 240.367 630.863 240.068 630.947 239.79C631.03 239.512 631.217 239.277 631.469 239.133C631.679 238.992 631.937 238.939 632.186 238.986C632.307 239.018 632.42 239.077 632.516 239.159C632.612 239.241 632.688 239.344 632.738 239.459C633.461 240.87 634.17 242.281 634.852 243.708C640.532 255.594 644.713 268.141 647.301 281.058C649.813 293.52 651.153 306.556 649.839 319.246Z" fill="white"/>
<path d="M466.461 221.741H164.282C163.649 221.74 163.042 221.488 162.594 221.04C162.146 220.592 161.894 219.986 161.892 219.352V2.38981C161.894 1.75651 162.146 1.14952 162.594 0.701656C163.041 0.253789 163.648 0.00150626 164.281 0H466.46C467.093 0.00144354 467.7 0.253589 468.148 0.701299C468.595 1.14901 468.848 1.75585 468.849 2.3891V219.352C468.848 219.985 468.596 220.592 468.148 221.039C467.701 221.487 467.094 221.74 466.461 221.741ZM164.282 1.46012C164.036 1.46073 163.799 1.55896 163.625 1.73332C163.451 1.90768 163.353 2.14397 163.352 2.39053V219.352C163.353 219.598 163.451 219.834 163.626 220.008C163.8 220.183 164.036 220.281 164.282 220.281H466.46C466.706 220.28 466.942 220.182 467.117 220.008C467.291 219.833 467.389 219.597 467.39 219.351V2.38981C467.389 2.14338 467.291 1.90726 467.116 1.73305C466.942 1.55885 466.706 1.46072 466.46 1.46012H164.282Z" fill="#3F3D56"/>
<path d="M449.775 18.6339V172.819C449.776 173.329 449.675 173.833 449.481 174.304C449.286 174.775 449 175.203 448.64 175.563C448.28 175.924 447.852 176.21 447.382 176.405C446.911 176.6 446.407 176.701 445.897 176.701H184.229C184.043 176.702 183.857 176.688 183.673 176.658C182.75 176.525 181.906 176.063 181.295 175.358C180.685 174.653 180.349 173.752 180.349 172.819V18.6339C180.348 17.6047 180.757 16.6175 181.484 15.8896C182.211 15.1616 183.198 14.7524 184.227 14.7521H445.895C446.404 14.7519 446.909 14.8521 447.379 15.047C447.85 15.2418 448.278 15.5275 448.638 15.8877C448.999 16.248 449.284 16.6757 449.48 17.1464C449.675 17.6171 449.775 18.1217 449.775 18.6313V18.6339Z" fill="#F2F2F2"/>
<path d="M246.307 106.428C265.111 106.428 280.354 91.1803 280.354 72.3719C280.354 53.5635 265.111 38.3162 246.307 38.3162C227.504 38.3162 212.261 53.5635 212.261 72.3719C212.261 91.1803 227.504 106.428 246.307 106.428Z" fill="#FF6584"/>
<path d="M353.072 177.319H186.052C185.843 177.322 185.634 177.305 185.428 177.27L264.421 40.4043C264.903 39.5519 265.603 38.8428 266.448 38.3494C267.294 37.856 268.256 37.5961 269.235 37.5961C270.214 37.5961 271.175 37.856 272.021 38.3494C272.867 38.8428 273.566 39.5519 274.049 40.4043L327.063 132.251L329.602 136.646L353.072 177.319Z" fill="#3F3D56"/>
<path opacity="0.2" d="M353.072 177.319H296.048L324.041 136.647L326.056 133.717L327.063 132.252L329.603 136.647L353.072 177.319Z" fill="black"/>
<path d="M446.068 177.319H301.609L329.602 136.646L331.617 133.716L368.095 80.7122C370.486 77.2383 376.239 77.022 379.051 80.057C379.24 80.264 379.415 80.4828 379.576 80.7122L446.068 177.319Z" fill="#3F3D56"/>
<path d="M171.612 217.891C174.172 217.891 176.247 215.816 176.247 213.256C176.247 210.695 174.172 208.62 171.612 208.62C169.053 208.62 166.978 210.695 166.978 213.256C166.978 215.816 169.053 217.891 171.612 217.891Z" fill="#4F46E5"/>
<path d="M459.905 217.891C462.465 217.891 464.54 215.816 464.54 213.256C464.54 210.695 462.465 208.62 459.905 208.62C457.346 208.62 455.271 210.695 455.271 213.256C455.271 215.816 457.346 217.891 459.905 217.891Z" fill="#4F46E5"/>
<path d="M105.587 369.97H114.535L118.792 335.447L105.586 335.448L105.587 369.97Z" fill="#FFB8B8"/>
<path d="M131.792 378.28L103.67 378.281L103.67 367.413L120.926 367.412C123.808 367.412 126.572 368.557 128.61 370.595C130.647 372.633 131.792 375.398 131.792 378.28Z" fill="#2F2E41"/>
<path d="M72.0137 369.97H80.9617L85.2182 335.447L72.0122 335.448L72.0137 369.97Z" fill="#FFB8B8"/>
<path d="M98.2188 378.28L70.0968 378.281L70.0963 367.413L87.353 367.412C90.2346 367.412 92.9983 368.557 95.036 370.595C97.0738 372.633 98.2186 375.398 98.2188 378.28Z" fill="#2F2E41"/>
<path d="M73.1069 267.149C74.0709 266.529 74.8872 265.705 75.4984 264.735C76.1095 263.765 76.5006 262.673 76.6441 261.535C76.7876 260.398 76.68 259.242 76.3289 258.151C75.9778 257.06 75.3918 256.058 74.612 255.218L80.5037 171.584L63.5324 173.23L63.0663 255.133C61.7417 256.537 60.978 258.378 60.9198 260.308C60.8617 262.237 61.5132 264.121 62.7508 265.602C63.9885 267.083 65.7263 268.059 67.635 268.344C69.5437 268.629 71.4906 268.204 73.1069 267.149L73.1069 267.149Z" fill="#FFB8B8"/>
<path d="M105.854 352.582C105.051 352.58 104.277 352.284 103.677 351.751C103.076 351.218 102.691 350.484 102.593 349.687L97.3915 306.174C97.3183 305.561 97.0259 304.995 96.5684 304.581C96.1108 304.168 95.519 303.933 94.9022 303.922C94.2854 303.911 93.6853 304.123 93.2128 304.52C92.7403 304.916 92.4273 305.471 92.3315 306.08L85.7796 347.743C85.6609 348.518 85.2681 349.224 84.6726 349.733C84.0771 350.242 83.3186 350.521 82.5351 350.518H71.9157C71.4823 350.518 71.0532 350.432 70.6531 350.265C70.253 350.099 69.8898 349.854 69.5845 349.547C69.2792 349.239 69.0378 348.874 68.8742 348.472C68.7106 348.071 68.6281 347.641 68.6313 347.207L73.6997 254.83C73.7016 254.043 73.9871 253.284 74.5037 252.691C75.0204 252.098 75.7336 251.712 76.5122 251.603L115.92 245.881C116.388 245.813 116.865 245.847 117.319 245.981C117.773 246.114 118.193 246.345 118.549 246.656C118.906 246.966 119.191 247.351 119.386 247.782C119.58 248.214 119.679 248.682 119.676 249.155L118.989 348.85C118.983 349.69 118.655 350.496 118.073 351.103C117.492 351.709 116.7 352.069 115.86 352.108L106.01 352.578C105.958 352.581 105.906 352.582 105.854 352.582Z" fill="#2F2E41"/>
<path d="M85.0422 257.841C81.2516 257.826 77.4921 257.157 73.9295 255.862C73.3256 255.639 72.801 255.243 72.422 254.722C72.043 254.202 71.8265 253.581 71.7998 252.938C71.4598 245.391 69.4709 206.547 63.6805 182.853C62.555 178.205 62.8303 173.327 64.4716 168.835C66.1128 164.344 69.0467 160.438 72.9033 157.612C73.2148 157.388 73.5323 157.168 73.8559 156.952C77.2048 154.722 81.0685 153.387 85.0793 153.072C89.0902 152.758 93.1147 153.475 96.7701 155.156C100.546 156.846 103.828 159.475 106.301 162.792C108.775 166.109 110.359 170.004 110.903 174.106L120.345 244.229C120.406 244.667 120.377 245.114 120.26 245.54C120.143 245.967 119.941 246.366 119.666 246.712C119.396 247.056 119.06 247.342 118.677 247.552C118.294 247.762 117.872 247.892 117.437 247.934C114.165 248.26 107.379 249.528 98.6944 254.355C94.518 256.669 89.8165 257.87 85.0422 257.841Z" fill="#FACC15"/>
<path d="M73.8797 200.193L58.3406 195.979C57.5004 195.75 56.7853 195.197 56.3522 194.441C55.919 193.686 55.8032 192.789 56.0301 191.948L61.4928 171.795C62.0779 169.636 63.4413 167.77 65.3201 166.558C67.1989 165.345 69.4601 164.871 71.6676 165.227C73.8752 165.583 75.8727 166.744 77.2751 168.486C78.6774 170.229 79.3853 172.428 79.2622 174.662L78.0186 197.203C77.9917 197.692 77.856 198.169 77.6213 198.598C77.3866 199.028 77.0589 199.399 76.6622 199.686C76.2655 199.972 75.8098 200.167 75.3283 200.254C74.8469 200.342 74.352 200.321 73.8797 200.193Z" fill="#FACC15"/>
<path d="M91.1775 146.113C101.078 146.113 109.104 138.085 109.104 128.182C109.104 118.279 101.078 110.251 91.1775 110.251C81.2772 110.251 73.2515 118.279 73.2515 128.182C73.2515 138.085 81.2772 146.113 91.1775 146.113Z" fill="#FFB8B8"/>
<path d="M156.137 163.411C156.048 163.805 155.989 164.205 155.963 164.608L124.61 182.701L116.989 178.312L108.865 188.951L125.168 200.574L160.937 172.348C162.396 172.888 163.984 172.971 165.491 172.586C166.999 172.201 168.353 171.366 169.374 170.192C170.395 169.018 171.035 167.561 171.208 166.015C171.381 164.469 171.08 162.906 170.344 161.536C169.608 160.165 168.472 159.051 167.087 158.341C165.703 157.632 164.135 157.361 162.593 157.565C161.051 157.769 159.607 158.437 158.454 159.481C157.301 160.525 156.493 161.896 156.137 163.411Z" fill="#FFB8B8"/>
<g filter="url(#filter0_d_25_33)">
<path d="M122.012 183.574L108.506 192.341C107.775 192.814 106.886 192.978 106.035 192.797C105.183 192.615 104.438 192.103 103.963 191.373L92.5992 173.858C91.3819 171.981 90.9022 169.721 91.2525 167.512C91.6028 165.303 92.7584 163.302 94.4964 161.894C96.2344 160.487 98.4318 159.773 100.665 159.891C102.898 160.008 105.008 160.948 106.589 162.53L122.546 178.495C122.892 178.841 123.157 179.26 123.32 179.722C123.483 180.183 123.541 180.675 123.49 181.162C123.439 181.649 123.28 182.118 123.024 182.535C122.768 182.953 122.422 183.307 122.012 183.574H122.012Z" fill="#FACC15"/>
</g>
<path d="M78.4921 142.368C81.8363 145.932 88.0469 144.019 88.4826 139.151C88.5168 138.773 88.5143 138.393 88.4752 138.015C88.2502 135.859 87.0048 133.901 87.3032 131.624C87.3707 131.058 87.5817 130.518 87.9163 130.056C90.5812 126.486 96.8368 131.652 99.3518 128.421C100.894 126.439 99.0812 123.32 100.265 121.105C101.827 118.182 106.453 119.624 109.354 118.023C112.582 116.243 112.389 111.288 110.264 108.275C107.673 104.6 103.129 102.639 98.6425 102.357C94.1556 102.074 89.6996 103.287 85.5107 104.92C80.7512 106.776 76.0315 109.34 73.1026 113.526C69.5408 118.617 69.198 125.461 70.9793 131.414C72.063 135.035 75.7612 139.459 78.4921 142.368Z" fill="#2F2E41"/>
<path d="M554.192 241.865C553.204 241.373 552.336 240.671 551.649 239.807C550.962 238.943 550.472 237.939 550.215 236.866C549.958 235.793 549.939 234.676 550.16 233.594C550.38 232.513 550.835 231.493 551.493 230.607L545.849 175.406H558.047L562.532 229.307C563.948 230.51 564.873 232.191 565.132 234.032C565.391 235.872 564.967 237.743 563.939 239.291C562.911 240.839 561.351 241.956 559.554 242.43C557.758 242.905 555.85 242.704 554.192 241.865V241.865Z" fill="#FFB8B8"/>
<path d="M542.992 144.942C552.523 144.942 560.25 137.213 560.25 127.68C560.25 118.146 552.523 110.417 542.992 110.417C533.461 110.417 525.735 118.146 525.735 127.68C525.735 137.213 533.461 144.942 542.992 144.942Z" fill="#FFB8B8"/>
<g filter="url(#filter1_d_25_33)">
<path d="M539.065 207.48L513.309 201.853C512.632 201.704 512.023 201.337 511.574 200.808C511.126 200.28 510.863 199.619 510.826 198.926C510.529 193.177 510.315 178.305 514.742 164.421C515.597 161.759 516.977 159.296 518.801 157.177C520.624 155.058 522.854 153.327 525.358 152.085C527.863 150.843 530.59 150.116 533.381 149.947C536.171 149.779 538.966 150.171 541.602 151.102C544.383 152.08 546.926 153.634 549.064 155.664C551.203 157.694 552.888 160.153 554.009 162.88C555.131 165.607 555.663 168.541 555.571 171.488C555.479 174.435 554.766 177.33 553.477 179.982C547.765 191.714 544.168 200.21 542.785 205.235C542.571 206.014 542.065 206.681 541.373 207.099C540.681 207.517 539.855 207.653 539.065 207.48V207.48Z" fill="#E11D48"/>
</g>
<path d="M514.802 371.475L506.187 371.474L502.09 338.239H514.803L514.802 371.475Z" fill="#FFB8B8"/>
<path d="M500.034 369.012H516.647V379.475H489.574C489.574 378.101 489.845 376.74 490.37 375.471C490.896 374.201 491.667 373.048 492.638 372.076C493.609 371.105 494.762 370.334 496.031 369.808C497.3 369.282 498.661 369.012 500.034 369.012Z" fill="#2F2E41"/>
<path d="M600.939 360.307L593.39 364.458L573.79 337.31L584.931 331.183L600.939 360.307Z" fill="#FFB8B8"/>
<path d="M586.813 365.266L601.371 357.26L606.41 366.429L582.686 379.476C582.024 378.271 581.606 376.949 581.455 375.583C581.304 374.217 581.424 372.835 581.807 371.516C582.19 370.196 582.83 368.965 583.688 367.893C584.547 366.821 585.609 365.928 586.813 365.266Z" fill="#2F2E41"/>
<path d="M514.959 353.018L501.697 351.997C500.955 351.941 500.257 351.625 499.725 351.104C499.193 350.583 498.863 349.891 498.793 349.15C496.903 329.432 488.611 229.508 511.037 198.744L511.1 198.658L511.2 198.621C511.401 198.547 531.401 191.413 542.876 204.487C543.236 204.903 543.482 205.405 543.589 205.944C543.695 206.484 543.66 207.042 543.485 207.563L543.047 208.877C542.922 209.249 542.888 209.646 542.949 210.035C543.01 210.423 543.163 210.79 543.395 211.107C546.58 215.413 557.298 231.998 561.511 264.612C561.537 264.82 561.591 265.024 561.669 265.218L592.771 341.642C592.93 342.032 593.009 342.45 593.004 342.872C592.999 343.293 592.91 343.709 592.742 344.095C592.574 344.482 592.331 344.831 592.026 345.122C591.722 345.413 591.362 345.64 590.968 345.79L581.182 349.52C580.469 349.787 579.684 349.79 578.969 349.528C578.255 349.265 577.658 348.755 577.287 348.09L532.39 266.61C532.211 266.285 531.934 266.026 531.599 265.868C531.264 265.711 530.888 265.663 530.524 265.732C530.16 265.801 529.828 265.983 529.574 266.253C529.32 266.522 529.157 266.865 529.11 267.232L518.337 350.271C518.238 351.033 517.866 351.732 517.289 352.239C516.713 352.746 515.972 353.026 515.204 353.027C515.123 353.027 515.041 353.024 514.959 353.018Z" fill="#2F2E41"/>
<path d="M475.902 147.732C475.988 148.111 476.044 148.496 476.07 148.884L506.253 166.302L513.59 162.077L521.411 172.319L509.15 181.061C508.159 181.767 506.966 182.133 505.75 182.103C504.534 182.073 503.361 181.65 502.406 180.896L471.281 156.335C469.877 156.855 468.347 156.935 466.896 156.565C465.445 156.194 464.141 155.39 463.157 154.26C462.174 153.13 461.558 151.727 461.391 150.238C461.224 148.749 461.515 147.245 462.223 145.925C462.932 144.605 464.026 143.532 465.359 142.85C466.692 142.167 468.202 141.906 469.686 142.102C471.171 142.298 472.561 142.942 473.672 143.947C474.782 144.953 475.56 146.273 475.902 147.732L475.902 147.732Z" fill="#FFB8B8"/>
<g filter="url(#filter2_d_25_33)">
<path d="M506.668 164.561C506.759 164.116 506.945 163.695 507.213 163.328C507.481 162.961 507.825 162.657 508.222 162.435L522.073 154.688C523.913 153.268 526.241 152.636 528.547 152.93C530.853 153.224 532.947 154.42 534.373 156.257C535.798 158.093 536.437 160.42 536.15 162.727C535.863 165.034 534.674 167.133 532.842 168.564L521.798 180.036C521.483 180.363 521.101 180.619 520.678 180.785C520.256 180.951 519.802 181.024 519.348 181C518.894 180.975 518.451 180.852 518.049 180.641C517.647 180.429 517.295 180.134 517.018 179.774L507.262 167.127C506.985 166.767 506.788 166.352 506.685 165.909C506.583 165.466 506.577 165.006 506.668 164.561Z" fill="#E11D48"/>
</g>
<path d="M542.522 188.445C542.168 188.16 541.881 187.801 541.679 187.394C541.476 186.987 541.364 186.541 541.35 186.087L540.853 170.221C540.44 167.932 540.95 165.573 542.273 163.661C543.595 161.749 545.622 160.439 547.909 160.019C550.195 159.599 552.555 160.103 554.47 161.421C556.386 162.739 557.701 164.762 558.127 167.048L563.221 182.136C563.367 182.567 563.417 183.024 563.37 183.476C563.323 183.928 563.179 184.365 562.948 184.756C562.717 185.147 562.405 185.484 562.032 185.744C561.659 186.004 561.235 186.18 560.787 186.261L545.072 189.099C544.625 189.18 544.166 189.164 543.726 189.051C543.285 188.938 542.875 188.731 542.522 188.445Z" fill="#E11D48"/>
<path d="M540.261 123.709C535.825 126.746 530.002 129.867 525.471 126.633C524.054 125.554 523.025 124.044 522.537 122.331C522.049 120.617 522.129 118.792 522.766 117.128C524.935 110.923 530.895 108.191 536.594 106.097C544.003 103.375 552.07 101.209 559.718 103.159C567.367 105.108 574.126 112.515 572.746 120.289C571.635 126.54 565.741 131.741 566.577 138.035C567.42 144.369 574.541 147.703 580.828 148.835C587.115 149.967 594.15 150.331 598.668 154.848C604.432 160.611 602.993 170.91 597.569 176.994C592.146 183.078 583.962 185.836 576.031 187.711C565.523 190.195 554.158 191.5 544.179 187.378C534.199 183.255 526.433 172.158 529.324 161.753C530.545 157.357 533.422 153.642 536.202 150.026C538.982 146.41 541.797 142.628 542.858 138.191C543.741 134.494 543.087 130.201 540.636 127.427C540.19 126.942 539.91 126.328 539.835 125.673C539.76 125.018 539.894 124.356 540.218 123.782L540.261 123.709Z" fill="#2F2E41"/>
<defs>
<filter id="filter0_d_25_33" x="87.1407" y="159.878" width="40.3676" height="40.9907" filterUnits="userSpaceOnUse" color-interpolation-filters="sRGB">
<feFlood flood-opacity="0" result="BackgroundImageFix"/>
<feColorMatrix in="SourceAlpha" type="matrix" values="0 0 0 0 0 0 0 0 0 0 0 0 0 0 0 0 0 0 127 0" result="hardAlpha"/>
<feOffset dy="4"/>
<feGaussianBlur stdDeviation="2"/>
<feColorMatrix type="matrix" values="0 0 0 0 0 0 0 0 0 0 0 0 0 0 0 0 0 0 0.25 0"/>
<feBlend mode="normal" in2="BackgroundImageFix" result="effect1_dropShadow_25_33"/>
<feBlend mode="normal" in="SourceGraphic" in2="effect1_dropShadow_25_33" result="shape"/>
</filter>
<filter id="filter1_d_25_33" x="506.689" y="149.909" width="52.8917" height="65.6438" filterUnits="userSpaceOnUse" color-interpolation-filters="sRGB">
<feFlood flood-opacity="0" result="BackgroundImageFix"/>
<feColorMatrix in="SourceAlpha" type="matrix" values="0 0 0 0 0 0 0 0 0 0 0 0 0 0 0 0 0 0 127 0" result="hardAlpha"/>
<feOffset dy="4"/>
<feGaussianBlur stdDeviation="2"/>
<feColorMatrix type="matrix" values="0 0 0 0 0 0 0 0 0 0 0 0 0 0 0 0 0 0 0.25 0"/>
<feBlend mode="normal" in2="BackgroundImageFix" result="effect1_dropShadow_25_33"/>
<feBlend mode="normal" in="SourceGraphic" in2="effect1_dropShadow_25_33" result="shape"/>
</filter>
<filter id="filter2_d_25_33" x="502.604" y="152.859" width="37.6135" height="36.1453" filterUnits="userSpaceOnUse" color-interpolation-filters="sRGB">
<feFlood flood-opacity="0" result="BackgroundImageFix"/>
<feColorMatrix in="SourceAlpha" type="matrix" values="0 0 0 0 0 0 0 0 0 0 0 0 0 0 0 0 0 0 127 0" result="hardAlpha"/>
<feOffset dy="4"/>
<feGaussianBlur stdDeviation="2"/>
<feColorMatrix type="matrix" values="0 0 0 0 0 0 0 0 0 0 0 0 0 0 0 0 0 0 0.25 0"/>
<feBlend mode="normal" in2="BackgroundImageFix" result="effect1_dropShadow_25_33"/>
<feBlend mode="normal" in="SourceGraphic" in2="effect1_dropShadow_25_33" result="shape"/>
</filter>
</defs>
</svg>
