<svg width="922" height="922" viewBox="0 0 922 922" fill="none" xmlns="http://www.w3.org/2000/svg">
<circle cx="461" cy="461" r="461" fill="#634FE1"/>
<path d="M669.806 509.092C663.407 425.773 624.614 373.56 590.392 327.486C558.703 284.831 531.333 247.996 531.333 193.659C531.333 189.294 528.889 185.305 525.013 183.305C521.126 181.293 516.454 181.622 512.92 184.191C461.523 220.969 418.639 282.956 403.658 342.1C393.259 383.277 391.883 429.568 391.69 460.141C344.225 450.003 333.473 379.004 333.359 378.23C332.824 374.548 330.575 371.343 327.301 369.593C323.994 367.866 320.106 367.74 316.753 369.4C314.264 370.604 255.66 400.382 252.25 519.274C252.011 523.23 252 527.197 252 531.163C252 646.669 345.986 740.649 461.5 740.649C461.659 740.66 461.83 740.683 461.966 740.649C462.012 740.649 462.057 740.649 462.113 740.649C577.344 740.318 671 646.465 671 531.163C671 525.355 669.806 509.092 669.806 509.092ZM461.5 717.373C422.991 717.373 391.667 684.004 391.667 642.987C391.667 641.589 391.656 640.18 391.757 638.452C392.223 621.154 395.509 609.346 399.112 601.492C405.864 615.994 417.934 629.326 437.541 629.326C443.974 629.326 449.18 624.12 449.18 617.688C449.18 601.118 449.521 582.001 453.647 564.748C457.319 549.45 466.093 533.174 477.209 520.127C482.153 537.062 491.792 550.768 501.204 564.145C514.673 583.284 528.596 603.072 531.04 636.816C531.187 638.816 531.336 640.828 531.336 642.987C531.333 684.003 500.009 717.373 461.5 717.373Z" fill="white"/>
</svg>
