<svg width="36" height="48" viewBox="0 0 36 48" fill="none" xmlns="http://www.w3.org/2000/svg">
<path d="M35.8974 28.1033C35.3476 20.9447 32.0146 16.4586 29.0742 12.5C26.3515 8.83509 24 5.67027 24 1.00171C24 0.626713 23.79 0.283963 23.457 0.112119C23.123 -0.0607559 22.7216 -0.0324435 22.418 0.188244C18.002 3.34818 14.3174 8.67403 13.0303 13.7556C12.1368 17.2935 12.0186 21.2707 12.002 23.8975C7.92384 23.0265 7.00003 16.9264 6.99028 16.8599C6.94434 16.5435 6.75103 16.2681 6.46978 16.1178C6.18563 15.9694 5.85159 15.9586 5.5635 16.1012C5.34966 16.2047 0.314437 18.7631 0.0214684 28.9782C0.000937151 29.3181 0 29.6589 0 29.9997C0 39.9238 8.07516 47.9985 18 47.9985C18.0137 47.9994 18.0283 48.0014 18.04 47.9985C18.044 47.9985 18.0478 47.9985 18.0527 47.9985C27.9532 47.9701 36 39.9063 36 29.9997C36 29.5007 35.8974 28.1033 35.8974 28.1033ZM18 45.9986C14.6914 45.9986 12 43.1316 12 39.6075C12 39.4874 11.9991 39.3663 12.0078 39.2179C12.0478 37.7316 12.3301 36.7171 12.6397 36.0423C13.2198 37.2883 14.2568 38.4337 15.9414 38.4337C16.4942 38.4337 16.9415 37.9865 16.9415 37.4338C16.9415 36.0101 16.9708 34.3676 17.3253 32.8852C17.6407 31.5709 18.3946 30.1725 19.3497 29.0515C19.7745 30.5065 20.6027 31.6841 21.4113 32.8335C22.5685 34.4779 23.7648 36.178 23.9748 39.0772C23.9874 39.2491 24.0002 39.422 24.0002 39.6075C24 43.1316 21.3086 45.9986 18 45.9986Z" fill="#634FE1"/>
</svg>
