<svg width="21" height="17" viewBox="0 0 21 17" fill="none" xmlns="http://www.w3.org/2000/svg">
<path fill-rule="evenodd" clip-rule="evenodd" d="M17.7051 1.21429H2.5293C2.19389 1.21429 1.87222 1.34222 1.63505 1.56994C1.39789 1.79766 1.26465 2.10652 1.26465 2.42857V14.5714C1.26465 14.8935 1.39789 15.2023 1.63505 15.4301C1.87222 15.6578 2.19389 15.7857 2.5293 15.7857H17.7051C18.0405 15.7857 18.3621 15.6578 18.5993 15.4301C18.8365 15.2023 18.9697 14.8935 18.9697 14.5714V2.42857C18.9697 2.10652 18.8365 1.79766 18.5993 1.56994C18.3621 1.34222 18.0405 1.21429 17.7051 1.21429V1.21429ZM2.5293 0C1.85848 0 1.21515 0.255867 0.740813 0.711312C0.266479 1.16676 0 1.78447 0 2.42857V14.5714C0 15.2155 0.266479 15.8332 0.740813 16.2887C1.21515 16.7441 1.85848 17 2.5293 17H17.7051C18.0372 17 18.3661 16.9372 18.673 16.8151C18.9799 16.6931 19.2587 16.5142 19.4935 16.2887C19.7284 16.0632 19.9147 15.7955 20.0418 15.5008C20.1689 15.2062 20.2344 14.8904 20.2344 14.5714V2.42857C20.2344 1.78447 19.9679 1.16676 19.4935 0.711312C19.0192 0.255867 18.3759 0 17.7051 0H2.5293V0Z" fill="#2DD4BF"/>
<path d="M13.4639 8.06981C13.5579 7.97988 13.6789 7.92058 13.8098 7.90031C13.9408 7.88005 14.075 7.89984 14.1936 7.95688L18.9702 10.3211V15.7854H1.26514V13.3568L4.61139 10.4984C4.71476 10.3995 4.85056 10.338 4.99577 10.3243C5.14098 10.3105 5.28667 10.3455 5.40812 10.4231L8.77209 12.576L13.4639 8.07102V8.06981Z" fill="#2DD4BF"/>
<path fill-rule="evenodd" clip-rule="evenodd" d="M5.6914 7.28543C5.94052 7.28543 6.18719 7.23832 6.41734 7.14679C6.6475 7.05525 6.85662 6.92109 7.03277 6.75195C7.20892 6.58282 7.34865 6.38202 7.44398 6.16104C7.53931 5.94005 7.58838 5.7032 7.58838 5.46401C7.58838 5.22481 7.53931 4.98796 7.44398 4.76698C7.34865 4.54599 7.20892 4.3452 7.03277 4.17606C6.85662 4.00693 6.6475 3.87276 6.41734 3.78123C6.18719 3.68969 5.94052 3.64258 5.6914 3.64258C5.1883 3.64258 4.70579 3.83448 4.35004 4.17606C3.99429 4.51765 3.79443 4.98093 3.79443 5.46401C3.79443 5.94708 3.99429 6.41037 4.35004 6.75195C4.70579 7.09353 5.1883 7.28543 5.6914 7.28543V7.28543Z" fill="#2DD4BF"/>
</svg>
