<svg width="725" height="561" viewBox="0 0 725 561" fill="none" xmlns="http://www.w3.org/2000/svg">
<g clip-path="url(#clip0_27_2393)">
<path d="M266.512 8.20251H9.46057V269.719H266.512V8.20251Z" fill="#634FE1"/>
<path d="M256.799 14.8401H27.8119H14.833V28.753V259.704H27.8119V28.753H256.799V14.8401Z" fill="#3F3D56"/>
<path opacity="0.3" d="M256.799 14.8401H27.8119H14.833V28.753V259.704H27.8119V28.753H256.799V14.8401Z" fill="black"/>
<path opacity="0.1" d="M219.716 28.7531H209.519H27.8119V62.1435H209.519V259.704H256.799V28.7531H219.716Z" fill="black"/>
<path d="M0 0V274.544H271.632V0H0ZM256.799 259.704H14.8332V14.8402H256.799V259.704Z" fill="#3F3D56"/>
<path d="M190.628 284.666C190.628 284.666 202.911 308.475 209.82 313.851C216.729 319.228 198.688 325.756 198.688 325.756L177.577 292.73L190.628 284.666Z" fill="#A0616A"/>
<path d="M116.163 226.679C116.163 226.679 173.355 241.656 178.345 251.64C183.335 261.625 198.688 285.818 198.688 285.818L176.042 303.867L153.779 270.457L92.3651 242.808L116.163 226.679Z" fill="#2F2E41"/>
<path d="M196.769 316.155C196.769 316.155 191.395 311.547 189.86 314.619C188.325 317.691 183.719 333.436 183.719 333.436C183.719 333.436 190.244 339.581 203.678 335.74C203.678 335.74 207.133 333.052 212.506 335.74C217.88 338.429 237.84 333.052 237.072 324.22C236.304 315.387 215.961 316.155 215.961 316.155C215.961 316.155 207.392 306.551 206.303 310.201C205.214 313.851 206.749 314.235 206.749 314.235C206.749 314.235 199.84 321.532 196.769 316.155Z" fill="#2F2E41"/>
<path d="M131.133 308.091L127.294 340.349H146.102C146.102 340.349 144.567 315.387 144.951 312.315C145.335 309.243 131.133 308.091 131.133 308.091Z" fill="#A0616A"/>
<path d="M141.88 237.047C141.88 237.047 152.244 252.408 146.103 253.56C139.961 254.712 134.971 237.047 134.971 237.047H141.88Z" fill="#A0616A"/>
<path d="M63.5773 235.511C63.5773 235.511 55.9005 258.168 86.2237 264.313C116.547 270.457 125.759 275.449 125.759 275.449L129.597 314.619L156.082 316.155C156.082 316.155 168.749 256.632 152.244 248.952C135.739 241.271 100.81 232.439 100.81 232.439L63.5773 235.511Z" fill="#2F2E41"/>
<path d="M129.597 335.356C129.597 335.356 134.971 332.668 135.739 332.668C135.739 332.668 139.113 324.883 145.294 325.703L158.769 345.341C158.769 345.341 179.113 359.934 164.911 363.774C150.709 367.614 139.577 364.542 139.577 364.542L133.82 360.318C133.82 360.318 134.587 356.094 129.597 356.862C129.597 356.862 119.234 352.637 119.618 349.565C120.001 346.493 128.154 333.121 128.154 333.121L129.597 335.356Z" fill="#2F2E41"/>
<path d="M132.86 160.819C141.34 160.819 148.214 153.942 148.214 145.458C148.214 136.975 141.34 130.098 132.86 130.098C124.38 130.098 117.506 136.975 117.506 145.458C117.506 153.942 124.38 160.819 132.86 160.819Z" fill="#A0616A"/>
<path d="M120.385 140.658C120.385 140.658 106.567 150.643 103.88 151.027C101.193 151.411 116.547 170.228 116.547 170.228C116.547 170.228 123.84 158.323 128.446 156.787C133.052 155.251 120.385 140.658 120.385 140.658Z" fill="#A0616A"/>
<path d="M110.022 153.331C110.022 153.331 104.264 145.65 100.81 145.65C97.355 145.65 66.2641 149.107 63.5773 174.836C60.8904 200.565 62.4257 245.496 62.4257 245.496C62.4257 245.496 60.1227 234.359 85.8399 238.967C85.8399 238.967 116.547 232.439 121.921 232.439C127.294 232.439 129.597 177.524 129.597 177.524L120.858 163.968C120.858 163.968 116.931 171.38 110.022 153.331Z" fill="#D0CDE1"/>
<path d="M123.84 174.452L129.597 177.524L136.507 219.766L146.102 241.656C146.102 241.656 135.739 238.086 134.971 242.367L119.618 220.15L123.84 174.452Z" fill="#D0CDE1"/>
<path d="M129.408 132.861L137.761 133.905C137.601 135.605 137.646 137.712 139.152 138.516C139.86 138.894 140.758 138.875 141.386 139.376C142.895 140.58 141.419 143.169 142.271 144.902L144.714 145.548C145.007 146.098 145.406 146.583 145.888 146.978C146.37 147.372 146.925 147.667 147.522 147.846C148.118 148.025 148.744 148.085 149.363 148.021C149.982 147.957 150.583 147.771 151.13 147.474C152.772 146.487 153.608 144.603 154.347 142.836C155.229 140.724 156.13 138.456 155.688 136.21C155.214 133.797 153.243 131.792 153.154 129.335C153.114 128.236 153.346 126.865 152.42 126.273C151.994 126.072 151.535 125.951 151.065 125.913C148.932 125.467 147.743 123.258 146.152 121.767C142.817 118.643 137.696 118.725 133.135 118.998C131.83 119.003 130.535 119.228 129.305 119.666C127.914 120.364 126.685 121.344 125.696 122.545C123.25 125.155 120.869 127.888 119.256 131.081C117.643 134.273 116.848 138.003 117.725 141.471C117.638 141.137 120.541 138.954 120.902 138.604C122.037 137.505 122.14 136.98 122.754 135.715C124.185 132.767 126.175 132.457 129.408 132.861Z" fill="#2F2E41"/>
<path opacity="0.1" d="M104.84 182.324L105.992 209.206L123.065 229.238L107.527 206.902L104.84 182.324Z" fill="black"/>
<path opacity="0.1" d="M74.133 189.621L87.5672 220.727L104.84 234.935L86.4153 222.263L74.133 189.621Z" fill="black"/>
<path d="M147.107 214.833L155.224 220.419C155.628 220.738 155.911 221.186 156.024 221.689C156.137 222.191 156.073 222.717 155.844 223.178L154.759 225.42L155.01 225.593L153.777 228.14L153.525 227.967L144.584 246.427C144.491 246.67 144.345 246.889 144.156 247.067C143.967 247.246 143.741 247.379 143.493 247.458C143.246 247.537 142.984 247.56 142.727 247.524C142.47 247.488 142.224 247.394 142.008 247.25L134.379 242C133.914 241.634 133.59 241.118 133.46 240.541C133.33 239.963 133.403 239.358 133.666 238.828L144.955 215.52C145.033 215.317 145.155 215.135 145.313 214.986C145.47 214.837 145.659 214.725 145.866 214.659C146.073 214.593 146.291 214.574 146.506 214.605C146.721 214.635 146.926 214.713 147.107 214.833Z" fill="#3F3D56"/>
<path d="M134.507 238.624L143.244 244.637L154.642 221.106L145.904 215.093L134.507 238.624Z" fill="white"/>
<path d="M130.714 233.444C130.714 233.444 145.939 244 140.633 247.302C135.327 250.603 124.275 235.951 124.275 235.951L130.714 233.444Z" fill="#A0616A"/>
<path d="M85.4561 155.251C85.4561 155.251 65.4965 161.011 71.2541 178.676C72.6429 182.937 74.3222 187.511 76.0708 191.999C81.5714 206.117 87.7591 219.382 87.7591 219.382L105.108 235.076L128.446 241.655L131.133 239.351C131.133 239.351 131.901 232.055 128.446 231.287C124.991 230.519 119.618 227.447 119.618 227.447L105.8 207.094C105.8 207.094 105.416 156.403 85.4561 155.251Z" fill="#D0CDE1"/>
<path d="M464.833 457.73L715.765 457.73V202.441L464.833 202.441V457.73Z" fill="#2DD4BF"/>
<path d="M474.315 208.92H697.85H710.52V222.502V447.954H697.85V222.502H474.315V208.92Z" fill="#3F3D56"/>
<path opacity="0.3" d="M474.315 208.92H697.85H710.52V222.502V447.954H697.85V222.502H474.315V208.92Z" fill="black"/>
<path opacity="0.1" d="M510.515 222.502H520.47H697.85V255.097H520.47V447.954H474.315V222.502H510.515Z" fill="black"/>
<path d="M459.835 194.433V462.441H725V194.433H459.835ZM474.315 208.92H710.52V447.954H474.315V208.92Z" fill="#3F3D56"/>
<path d="M614.778 320.788C609.068 311.135 597.772 310.685 597.772 310.685C597.772 310.685 586.764 309.277 579.702 323.978C573.12 337.681 564.036 350.911 578.24 354.119L580.805 346.13L582.394 354.713C584.416 354.859 586.445 354.894 588.471 354.817C603.682 354.326 618.168 354.961 617.701 349.5C617.081 342.241 620.273 330.076 614.778 320.788Z" fill="#2F2E41"/>
<path d="M573.622 398.693L572.421 420.327L607.658 423.932L608.86 401.498L596.846 393.886L573.622 398.693Z" fill="#A0616A"/>
<path d="M668.322 446.166C667.266 435.946 625.314 431.307 615.232 430.339L611.462 428.139L610.261 415.319C610.261 415.319 573.022 412.114 570.219 411.714C567.416 411.313 565.013 416.521 565.013 417.723C565.013 418.591 564.489 424.794 562.385 428.471C557.842 432.123 543.991 443.615 543.991 447.969C543.991 453.177 555.003 518.677 555.003 518.677L556.204 532.298L567.416 534.301L566.615 491.836C566.615 491.836 570.619 467.399 565.013 460.588V457.784C565.013 457.784 581.455 453.498 587.25 448.832C588.929 448.471 593.648 447.581 596.254 448.355C596.612 448.565 597.024 448.782 597.482 449.002C597.541 449.055 597.596 449.111 597.648 449.171L597.693 449.102C605.189 452.612 624.42 457.04 632.284 455.781C638.35 454.855 644.551 455.983 649.903 458.986C645.498 464.594 648.702 480.619 648.702 480.619L649.102 515.072L654.708 521.882H662.316V503.053C662.316 503.053 669.524 457.784 668.322 446.166Z" fill="#2F2E41"/>
<path d="M594.244 347.215C601.542 347.215 607.458 341.296 607.458 333.995C607.458 326.693 601.542 320.774 594.244 320.774C586.946 320.774 581.03 326.693 581.03 333.995C581.03 341.296 586.946 347.215 594.244 347.215Z" fill="#A0616A"/>
<path d="M586.236 342.407C586.236 342.407 588.238 351.221 585.435 352.022C583.217 352.757 581.073 353.696 579.028 354.827L575.825 365.242V375.658L614.666 380.065L615.867 376.46V371.252L611.462 363.239L609.46 361.236C609.46 361.236 600.651 351.622 602.653 342.407H586.236Z" fill="#A0616A"/>
<path d="M620.872 374.256C620.872 374.256 622.073 388.278 620.872 394.688C619.671 401.097 620.071 410.712 620.071 410.712L611.262 409.11V387.477L613.264 375.859L620.872 374.256Z" fill="#A0616A"/>
<path d="M599.154 318.906C603.665 318.906 607.323 315.248 607.323 310.734C607.323 306.221 603.665 302.562 599.154 302.562C594.643 302.562 590.986 306.221 590.986 310.734C590.986 315.248 594.643 318.906 599.154 318.906Z" fill="#2F2E41"/>
<path d="M590.126 308.584C590.127 306.565 590.873 304.619 592.223 303.118C593.572 301.618 595.429 300.67 597.435 300.458C597.149 300.427 596.862 300.412 596.575 300.412C594.409 300.412 592.331 301.273 590.799 302.805C589.267 304.338 588.407 306.416 588.407 308.584C588.407 310.751 589.267 312.83 590.799 314.362C592.331 315.895 594.409 316.756 596.575 316.756C596.862 316.755 597.149 316.74 597.435 316.71C595.429 316.497 593.572 315.55 592.223 314.049C590.873 312.549 590.127 310.602 590.126 308.584V308.584Z" fill="#2F2E41"/>
<path d="M612.254 319.857L601.094 314.009L585.681 316.402L582.493 330.492L590.43 330.186L592.648 325.01V330.101L596.31 329.96L598.436 321.718L599.765 330.492L612.785 330.226L612.254 319.857Z" fill="#2F2E41"/>
<path d="M566.793 518.845C566.793 518.845 572.475 521.52 574.146 522.523C575.817 523.527 582.502 521.52 581.165 527.539C579.828 533.558 574.146 539.243 574.146 539.243C574.146 539.243 571.472 542.253 571.472 544.259C571.472 546.265 564.787 561.648 556.765 560.979C548.744 560.31 550.081 552.285 550.081 552.285L551.752 543.59C551.752 543.59 555.094 528.877 555.763 529.211C556.431 529.546 558.102 531.886 558.102 531.886C558.102 531.886 566.458 528.542 566.793 518.845Z" fill="#D0CDE1"/>
<path d="M650.125 508.83C650.125 508.83 644.443 511.505 642.772 512.508C641.101 513.511 634.416 511.505 635.753 517.524C637.09 523.543 642.772 529.228 642.772 529.228C642.772 529.228 645.446 532.237 645.446 534.244C645.446 536.25 652.131 551.632 660.152 550.964C668.174 550.295 666.837 542.269 666.837 542.269L665.166 533.575C665.166 533.575 661.824 518.861 661.155 519.196C660.487 519.53 658.816 521.871 658.816 521.871C658.816 521.871 650.46 518.527 650.125 508.83Z" fill="#D0CDE1"/>
<path d="M606.07 413.514V410.335H605.364V408.922C605.364 408.597 605.3 408.275 605.176 407.975C605.052 407.675 604.87 407.403 604.64 407.173C604.411 406.943 604.138 406.761 603.838 406.637C603.539 406.513 603.217 406.449 602.893 406.449H594.418C593.763 406.449 593.134 406.709 592.671 407.173C592.207 407.637 591.947 408.266 591.947 408.922V432.59C591.947 433.246 592.207 433.875 592.671 434.339C593.134 434.802 593.763 435.063 594.418 435.063H602.893C603.548 435.063 604.177 434.802 604.64 434.339C605.104 433.875 605.364 433.246 605.364 432.59V417.753H606.07V414.574H605.364V413.514H606.07Z" fill="#D0CDE1"/>
<path d="M599.009 414.927C599.789 414.927 600.421 414.295 600.421 413.514C600.421 412.734 599.789 412.101 599.009 412.101C598.229 412.101 597.596 412.734 597.596 413.514C597.596 414.295 598.229 414.927 599.009 414.927Z" fill="#3F3D56"/>
<path d="M563.612 367.446L556.404 397.091C556.404 397.091 553.601 403.501 560.008 407.507C566.415 411.513 580.83 416.721 580.83 416.721C580.83 416.721 593.643 434.348 595.245 427.137C596.847 419.926 585.635 410.712 585.635 410.712L566.014 398.293L573.622 377.461L563.612 367.446Z" fill="#A0616A"/>
<path d="M615.667 404.703C615.667 404.703 621.673 403.902 621.272 410.712C620.872 417.523 612.864 418.324 612.864 418.324C612.864 418.324 609.26 433.547 604.054 430.743C598.849 427.938 606.857 412.715 606.857 412.715L613.665 407.507L615.667 404.703Z" fill="#A0616A"/>
<path d="M577.026 364.842L583.432 351.622L570.619 356.028C570.619 356.028 563.411 359.634 563.011 368.047C562.61 376.46 572.221 380.866 572.221 380.866C572.221 380.866 573.822 392.885 573.021 394.487C572.221 396.09 573.021 402.499 573.021 402.499C573.021 402.499 588.438 398.293 596.046 403.501C603.654 408.709 609.86 405.704 609.86 405.704C609.86 405.704 609.46 395.689 612.663 394.087C615.867 392.484 618.67 384.872 615.867 380.065C615.867 380.065 622.274 380.866 621.873 374.857C621.473 368.848 618.269 363.64 613.064 361.236C607.858 358.833 607.283 358.449 607.283 358.449L614.665 372.053V375.658C614.665 375.658 601.596 367.312 588.666 366.617C584.447 366.424 580.305 367.788 577.026 370.45L577.026 370.45V364.842Z" fill="#2F2E41"/>
</g>
<defs>
<clipPath id="clip0_27_2393">
<rect width="725" height="561" fill="white"/>
</clipPath>
</defs>
</svg>
