<svg width="26" height="26" viewBox="0 0 26 26" fill="none" xmlns="http://www.w3.org/2000/svg">
<path d="M19.7817 3.25H6.21833C5.43108 3.25 4.67608 3.56273 4.1194 4.1194C3.56273 4.67608 3.25 5.43108 3.25 6.21833V19.7817C3.25 20.5689 3.56273 21.3239 4.1194 21.8806C4.67608 22.4373 5.43108 22.75 6.21833 22.75H19.7817C20.5689 22.75 21.3239 22.4373 21.8806 21.8806C22.4373 21.3239 22.75 20.5689 22.75 19.7817V6.21833C22.75 5.43108 22.4373 4.67608 21.8806 4.1194C21.3239 3.56273 20.5689 3.25 19.7817 3.25ZM7.58333 11.9167H5.41667V9.75H7.58333V11.9167ZM5.41667 14.0833H7.58333V16.25H5.41667V14.0833ZM9.75 5.41667H16.25V20.5833H9.75V5.41667ZM20.5833 11.9167H18.4167V9.75H20.5833V11.9167ZM18.4167 14.0833H20.5833V16.25H18.4167V14.0833ZM20.5833 6.21833V7.58333H18.4167V5.41667H19.7817C19.8869 5.41667 19.9912 5.4374 20.0885 5.47769C20.1857 5.51798 20.2741 5.57703 20.3485 5.65147C20.423 5.72591 20.482 5.81429 20.5223 5.91155C20.5626 6.00881 20.5833 6.11306 20.5833 6.21833ZM6.21833 5.41667H7.58333V7.58333H5.41667V6.21833C5.41667 6.11306 5.4374 6.00881 5.47769 5.91155C5.51798 5.81429 5.57703 5.72591 5.65147 5.65147C5.72591 5.57703 5.81429 5.51798 5.91155 5.47769C6.00881 5.4374 6.11306 5.41667 6.21833 5.41667ZM5.41667 19.7817V18.4167H7.58333V20.5833H6.21833C6.11306 20.5833 6.00881 20.5626 5.91155 20.5223C5.81429 20.482 5.72591 20.423 5.65147 20.3485C5.57703 20.2741 5.51798 20.1857 5.47769 20.0885C5.4374 19.9912 5.41667 19.8869 5.41667 19.7817ZM20.5833 19.7817C20.5833 19.9943 20.4989 20.1982 20.3485 20.3485C20.1982 20.4989 19.9943 20.5833 19.7817 20.5833H18.4167V18.4167H20.5833V19.7817Z" fill="#F87171"/>
</svg>
